<svg width="230" height="97" viewBox="0 0 230 97" fill="none" xmlns="http://www.w3.org/2000/svg">
<g clip-path="url(#clip0_69_128)">
<path d="M212.75 58.19C212.71 58.76 212.67 59.58 212.59 60.4C212.47 61.71 212.23 63.01 211.91 64.29C211.81 64.67 211.77 65.07 211.7 65.46C211.46 66.74 211.15 68.01 210.78 69.26C210.08 71.62 209.2 73.9 208.18 76.14C206.71 79.37 204.99 82.47 203.03 85.44C202.59 86.1 202.07 86.69 201.55 87.27C200.02 88.97 198.36 90.53 196.52 91.89C194.63 93.29 192.6 94.45 190.4 95.31C189.2 95.77 187.97 96.14 186.71 96.38C186.13 96.49 185.53 96.55 184.94 96.63C184.12 96.74 183.29 96.72 182.47 96.7C182.08 96.69 181.7 96.62 181.31 96.58C181.01 96.55 180.71 96.54 180.42 96.51C179.96 96.46 179.49 96.42 179.03 96.36C178.15 96.25 177.29 96.07 176.44 95.85C173.76 95.15 171.31 93.96 169.1 92.28C166.8 90.53 164.9 88.42 163.44 85.94C162.44 84.24 161.59 82.45 161.06 80.54C160.79 79.58 160.61 78.61 160.49 77.62C160.36 76.56 160.33 75.49 160.39 74.43C160.57 71.23 161.41 68.22 162.94 65.4C163.07 65.16 163.23 64.93 163.39 64.72C167.04 60.07 171.27 56.04 176.15 52.69C178.92 50.78 181.84 49.13 184.93 47.79C186.07 47.3 187.23 46.86 188.41 46.49C189.12 46.27 189.82 46.02 190.54 45.8C191.62 45.48 192.71 45.23 193.82 45.06C194.52 44.95 195.22 44.87 195.93 44.82C196.78 44.76 197.63 44.75 198.48 44.8C201.65 44.98 204.61 45.84 207.3 47.54C208.03 48 208.71 48.51 209.33 49.12C209.36 49.15 209.39 49.17 209.42 49.2C210.57 50.09 211.35 51.24 211.88 52.58C212.23 53.46 212.44 54.37 212.58 55.31C212.71 56.19 212.75 57.07 212.78 58.21L212.75 58.19ZM191.64 70.44C191.58 70.52 191.54 70.57 191.5 70.62C190.55 71.74 189.6 72.86 188.66 73.98C187.26 75.65 185.86 77.33 184.54 79.07C184.24 79.47 183.95 79.88 183.68 80.3C183.46 80.64 183.34 81.03 183.35 81.44C183.35 81.7 183.46 81.91 183.69 82.04C183.85 82.13 184.03 82.19 184.21 82.24C184.58 82.34 184.97 82.33 185.35 82.33C190.27 82.33 195.19 82.33 200.11 82.33C201.11 82.33 202.11 82.33 203.11 82.33C203.18 82.33 203.26 82.36 203.34 82.28C203.27 82.22 203.21 82.16 203.14 82.12C203 82.04 202.85 81.97 202.7 81.91C201.9 81.6 201.06 81.42 200.22 81.25C199.51 81.11 198.79 80.99 198.08 80.87C197.54 80.78 196.99 80.7 196.44 80.63C195.9 80.56 195.36 80.5 194.82 80.42C194.03 80.3 193.23 80.17 192.44 80.03C192.13 79.98 191.82 79.9 191.52 79.8C191.3 79.73 191.26 79.58 191.38 79.39C191.46 79.27 191.55 79.16 191.66 79.06C192.9 77.86 194.06 76.59 195.14 75.25C195.89 74.32 196.58 73.36 197.18 72.33C197.58 71.64 197.89 70.9 198.14 70.14C198.27 69.75 198.3 69.34 198.2 68.93C198.08 68.44 197.81 68.04 197.44 67.71C197.09 67.4 196.68 67.18 196.26 67.01C195.17 66.57 194.01 66.4 192.85 66.3C192.55 66.28 192.24 66.27 191.94 66.25C190.93 66.18 189.93 66.23 188.92 66.27C188.4 66.29 187.87 66.34 187.35 66.37C186.98 66.39 186.63 66.46 186.32 66.67C186.08 66.83 185.83 66.97 185.61 67.15C184.91 67.69 184.4 68.38 184.18 69.25C184.11 69.51 184.07 69.77 184.02 70.03C183.99 70.2 184.06 70.35 184.23 70.4C184.36 70.44 184.51 70.46 184.65 70.46C186.12 70.46 187.6 70.44 189.07 70.43C189.88 70.43 190.69 70.43 191.51 70.43C191.55 70.43 191.59 70.43 191.66 70.43L191.64 70.44ZM184.92 66.64C184.79 66.62 184.7 66.59 184.61 66.59C183.64 66.53 182.71 66.66 181.81 67.04C180.62 67.54 179.67 68.36 178.91 69.39C178.33 70.17 177.89 71.02 177.54 71.91C177.38 72.31 177.25 72.73 177.09 73.13C176.54 74.42 175.81 75.6 174.95 76.7C174.59 77.17 174.22 77.63 173.77 78.02C172.19 79.39 170.53 80.62 168.64 81.52C168.61 81.54 168.58 81.57 168.52 81.61C168.92 81.67 169.28 81.69 169.64 81.7C170.69 81.72 171.73 81.61 172.75 81.39C174.21 81.07 175.56 80.52 176.8 79.69C178.34 78.65 179.52 77.29 180.4 75.66C181.12 74.35 181.6 72.95 181.93 71.49C182.15 70.51 182.48 69.55 182.94 68.65C183.18 68.19 183.45 67.76 183.81 67.38C184.09 67.09 184.4 66.85 184.78 66.72C184.82 66.71 184.85 66.68 184.93 66.64H184.92ZM173.59 65.43C173.34 65.47 173.09 65.48 172.84 65.54C172.03 65.75 171.43 66.22 171.16 67.04C170.98 67.59 171.02 68.14 171.23 68.68C171.58 69.58 172.22 70.21 173.08 70.62C173.8 70.97 174.56 71.11 175.35 70.93C176.18 70.74 176.8 70.28 177.09 69.45C177.29 68.88 177.24 68.31 177.02 67.75C176.47 66.34 174.95 65.43 173.58 65.42L173.59 65.43Z" fill="#EA5350"/>
<path d="M1 43.37H14.18C14.18 47.01 14.52 49.56 15.2 51.01C15.88 52.47 17.33 53.22 19.55 53.26C21.77 53.26 23.23 52.59 23.95 51.24C24.67 49.89 25.03 47.78 25.03 44.91V15.89H38.21V45.82C38.21 48.3 37.98 50.55 37.52 52.56C37.06 54.57 36.2 56.38 34.94 57.99C33.68 59.6 31.87 60.86 29.48 61.78C27.09 62.7 24.08 63.16 20.42 63.16C17.32 63.16 14.6 62.9 12.28 62.39C9.95 61.88 7.94 60.97 6.24 59.66C4.54 58.35 3.24 56.52 2.33 54.17C1.42 51.82 0.970001 48.86 0.970001 45.31V43.38L1 43.37Z" fill="#427BBF"/>
<path d="M57.17 15.89H73.29L90.3 61.74H76.17L73.79 54.29H56.51L54.13 61.74H40L57.17 15.89ZM65.2 27.45H65.09L59.61 44.79H70.69L65.21 27.45H65.2Z" fill="#427BBF"/>
<path d="M92.73 15.89H125.47C127.72 15.89 129.61 16.24 131.12 16.95C132.63 17.66 133.79 18.58 134.58 19.71C135.37 20.84 135.93 22.05 136.24 23.34C136.55 24.62 136.71 25.91 136.71 27.19C136.71 29.33 136.26 31.26 135.35 32.97C134.44 34.68 133.27 35.84 131.83 36.44V36.57C133.97 37.13 135.65 38.39 136.87 40.36C138.09 42.33 138.7 44.9 138.7 48.07C138.7 49.65 138.5 51.22 138.09 52.76C137.68 54.3 136.96 55.76 135.93 57.13C134.9 58.5 133.43 59.61 131.53 60.47C129.63 61.33 127.24 61.75 124.36 61.75H92.73V15.89ZM105.91 33.55H119.04C120.37 33.55 121.38 33.19 122.06 32.46C122.74 31.73 123.08 30.79 123.08 29.63C123.08 28.47 122.74 27.6 122.06 26.87C121.38 26.14 120.37 25.78 119.04 25.78H105.91V33.55ZM120.09 51.85C121.49 51.85 122.62 51.43 123.47 50.6C124.32 49.77 124.74 48.6 124.74 47.1C124.74 45.6 124.32 44.52 123.49 43.73C122.66 42.94 121.52 42.54 120.08 42.54H105.9V51.85H120.08H120.09Z" fill="#427BBF"/>
<path d="M145.03 15.89H184.64V25.78H158.22V34.06H182.98V43.56H158.22V51.84H184.64V61.73H145.03V15.89Z" fill="#427BBF"/>
<path d="M187.18 52.94L212.11 26.16H188.9V15.89H229.78V24.88L205.02 51.47H229.39V61.74H187.18V52.94Z" fill="#427BBF"/>
<path d="M43.87 38.86C42.55 40.88 40.66 41.89 38.2 41.89C37.06 41.89 36.16 41.54 35.52 40.84C34.85 40.11 34.51 39.35 34.51 38.56C34.51 37.04 35.18 36.28 36.53 36.28H36.79C37.96 36.28 38.58 36.88 38.63 38.08C38.63 38.37 38.54 38.71 38.37 39.09C38.19 39.5 38.11 39.81 38.11 40.01C38.11 40.27 38.21 40.46 38.42 40.58C38.62 40.7 38.89 40.76 39.21 40.76C39.88 40.76 40.37 40.31 40.66 39.4C40.95 38.52 41.1 37.28 41.1 35.67V9.69999H37.94V8.59999L45.85 8.37999V30.17C45.85 33.95 45.19 36.85 43.87 38.87V38.86ZM45.23 5.29999C44.73 5.79999 44.15 6.04999 43.47 6.04999C42.79 6.04999 42.21 5.79999 41.71 5.29999C41.21 4.79999 40.96 4.21999 40.96 3.53999C40.96 2.85999 41.21 2.23999 41.71 1.73999C42.21 1.23999 42.79 0.98999 43.47 0.98999C44.15 0.98999 44.73 1.23999 45.23 1.73999C45.73 2.23999 45.98 2.81999 45.98 3.49999C45.98 4.17999 45.73 4.79999 45.23 5.29999Z" fill="#F1BC2E"/>
<path d="M65.97 31.62C65.35 32.06 64.56 32.28 63.6 32.28C62.49 32.28 61.67 31.99 61.14 31.4C60.55 30.76 60.22 30.02 60.13 29.2C59.1 30.31 58.07 31.1 57.01 31.57C55.87 32.07 54.76 32.32 53.67 32.32C52.23 32.32 51.12 31.79 50.33 30.74C49.54 29.66 49.14 28.31 49.14 26.7C49.14 24.65 49.76 23.01 50.98 21.78C52.21 20.52 53.81 19.72 55.77 19.36C56.09 19.3 56.43 19.26 56.78 19.23C57.13 19.2 57.5 19.17 57.88 19.14C58.26 19.11 58.63 19.1 58.98 19.1H60.12V11.94C60.12 11.18 59.81 10.53 59.2 10.01C58.53 9.48 57.85 9.22 57.18 9.22C56.36 9.22 55.64 9.37 55.03 9.66C54.36 9.98 54.02 10.27 54.02 10.54C54.02 10.6 54.14 10.86 54.37 11.33C54.63 11.83 54.77 12.38 54.77 13C54.65 14.26 53.91 14.89 52.53 14.89C51.15 14.89 50.41 14.23 50.38 12.91C50.35 11.65 51 10.57 52.31 9.66C53.63 8.78 55.36 8.34 57.49 8.34C59.48 8.34 61.18 8.84 62.59 9.83C63.94 10.83 64.61 12.13 64.61 13.74V29.47C64.61 29.76 64.7 29.97 64.87 30.08C65.08 30.26 65.34 30.34 65.66 30.34C65.89 30.34 66.17 30.21 66.49 29.94C66.64 29.79 66.78 29.67 66.91 29.57C67.04 29.47 67.14 29.39 67.2 29.33L67.73 29.95C67.17 30.59 66.59 31.15 65.97 31.62ZM60.13 21.12C59.69 20.8 59.24 20.53 58.77 20.33C58.54 20.24 58.29 20.2 58.02 20.2C57.7 20.2 57.32 20.24 56.88 20.33C55.88 20.59 55.12 21.14 54.6 21.95C54.04 22.77 53.77 23.9 53.77 25.33C53.77 26.76 53.99 27.85 54.43 28.76C54.87 29.67 55.57 30.12 56.54 30.12C57.62 30.12 58.49 29.49 59.13 28.23C59.8 26.94 60.14 25.48 60.14 23.84V21.12H60.13Z" fill="#F1BC2E"/>
<path d="M88.81 28.76C87.17 31.1 85.21 32.27 82.92 32.27C81.87 32.27 80.91 32.04 80.07 31.57C79.13 31.07 78.28 30.3 77.52 29.24V32.05C77.11 31.84 76.14 31.71 74.62 31.65C73.86 31.65 73.06 31.65 72.23 31.63C71.4 31.61 70.52 31.61 69.62 31.61V30.51H72.78V3.36999H69.62V2.26999C70.47 2.26999 71.22 2.26999 71.88 2.24999C72.54 2.23999 73.1 2.20999 73.57 2.17999C74.04 2.11999 74.6 2.04999 75.26 1.95999C75.92 1.86999 76.67 1.75999 77.52 1.60999V11.54C78.28 10.4 79.1 9.57999 79.98 9.07999C80.89 8.57999 81.8 8.32999 82.7 8.32999C84.98 8.32999 86.96 9.51999 88.63 11.89C90.36 14.32 91.22 17.13 91.22 20.32C91.22 23.51 90.41 26.38 88.8 28.75L88.81 28.76ZM86.04 16.15C86.04 15.15 85.97 14.25 85.82 13.43C85.67 12.61 85.47 11.86 85.2 11.19C84.59 9.86999 83.81 9.20999 82.87 9.20999C81.35 9.20999 80.09 10.04 79.09 11.71C78.04 13.44 77.51 15.47 77.51 17.82V23.31C77.51 25.62 78.04 27.54 79.09 29.06C80.14 30.61 81.37 31.39 82.78 31.39C83.81 31.39 84.61 30.75 85.2 29.46C85.76 28.23 86.03 26.56 86.03 24.45V16.15H86.04Z" fill="#F1BC2E"/>
<path d="M108.31 30.08C106.79 31.54 105.06 32.28 103.13 32.28C100.93 32.28 98.99 31.12 97.29 28.81C95.59 26.5 94.74 23.8 94.74 20.73C94.74 17.33 95.6 14.42 97.33 11.99C99.06 9.56 101.14 8.34 103.57 8.34C105.71 8.34 107.52 9.28 109.02 11.15C110.54 13.02 111.3 15.29 111.3 17.96C111.3 18.14 111.3 18.29 111.28 18.42C111.26 18.55 111.24 18.68 111.21 18.79C111.21 19 111.11 19.1 110.9 19.1H99.96V23.32C99.96 25.87 100.25 27.86 100.84 29.29C101.4 30.7 102.39 31.4 103.83 31.4C105.62 31.4 107.07 30.49 108.18 28.68C108.74 27.77 109.2 26.87 109.56 25.98C109.93 25.09 110.18 24.2 110.33 23.32H111.43C110.82 26.37 109.78 28.62 108.31 30.08ZM105.63 10.75C105.1 9.73 104.31 9.21 103.26 9.21C101.88 9.21 101.01 9.88 100.63 11.23C100.19 12.61 99.97 14.6 99.97 17.2V17.99H106.34L106.43 14.96C106.46 13.23 106.19 11.83 105.64 10.74L105.63 10.75Z" fill="#F1BC2E"/>
<path d="M119.69 30.52H123.29C125.25 30.52 126.6 30.02 127.33 29.03C128.06 28.03 128.52 26.41 128.69 24.15H129.92V31.62H114.15V30.39L124.52 9.69998H121.71C120.1 9.69998 118.88 10.15 118.06 11.06C117.18 12.03 116.6 13.48 116.3 15.41H115.16V8.59998H129.96V9.91998L119.68 30.52H119.69Z" fill="#F1BC2E"/>
</g>
<defs>
<clipPath id="clip0_69_128">
<rect width="230" height="97" fill="white"/>
</clipPath>
</defs>
</svg>
